solid OpenSCAD_Model
  facet normal 0 0 -1
    outer loop
      vertex -1.1 -0.599999 0
      vertex -0.799999 -0.299999 0
      vertex -0.799999 -0.599999 0
    endloop
  endfacet
  facet normal -0 0 -1
    outer loop
      vertex -0.799999 -0.299999 0
      vertex -1.1 -0.599999 0
      vertex -1.1 -0.299999 0
    endloop
  endfacet
  facet normal -1 0 0
    outer loop
      vertex -1.1 -0.599999 0
      vertex -1.1 -0.299999 1.2
      vertex -1.1 -0.299999 0
    endloop
  endfacet
  facet normal -1 -0 0
    outer loop
      vertex -1.1 -0.299999 1.2
      vertex -1.1 -0.599999 0
      vertex -1.1 -0.599999 1.2
    endloop
  endfacet
  facet normal 0 -1 0
    outer loop
      vertex -1.1 -0.599999 0
      vertex -0.799999 -0.599999 1.2
      vertex -1.1 -0.599999 1.2
    endloop
  endfacet
  facet normal 0 -1 -0
    outer loop
      vertex -0.799999 -0.599999 1.2
      vertex -1.1 -0.599999 0
      vertex -0.799999 -0.599999 0
    endloop
  endfacet
  facet normal 1 -0 0
    outer loop
      vertex -0.799999 -0.599999 1.2
      vertex -0.799999 -0.299999 0
      vertex -0.799999 -0.299999 1.2
    endloop
  endfacet
  facet normal 1 0 0
    outer loop
      vertex -0.799999 -0.299999 0
      vertex -0.799999 -0.599999 1.2
      vertex -0.799999 -0.599999 0
    endloop
  endfacet
  facet normal 0 1 -0
    outer loop
      vertex -0.799999 -0.299999 0
      vertex -1.1 -0.299999 1.2
      vertex -0.799999 -0.299999 1.2
    endloop
  endfacet
  facet normal 0 1 0
    outer loop
      vertex -1.1 -0.299999 1.2
      vertex -0.799999 -0.299999 0
      vertex -1.1 -0.299999 0
    endloop
  endfacet
  facet normal -0 0 1
    outer loop
      vertex -1.1 -0.299999 1.2
      vertex -0.799999 -0.599999 1.2
      vertex -0.799999 -0.299999 1.2
    endloop
  endfacet
  facet normal 0 0 1
    outer loop
      vertex -0.799999 -0.599999 1.2
      vertex -1.1 -0.299999 1.2
      vertex -1.1 -0.599999 1.2
    endloop
  endfacet
  facet normal 0 0 -1
    outer loop
      vertex 0.599999 -1.1 0
      vertex 0.9 -0.799999 0
      vertex 0.9 -1.1 0
    endloop
  endfacet
  facet normal -0 0 -1
    outer loop
      vertex 0.9 -0.799999 0
      vertex 0.599999 -1.1 0
      vertex 0.599999 -0.799999 0
    endloop
  endfacet
  facet normal -1 0 0
    outer loop
      vertex 0.599999 -1.1 0
      vertex 0.599999 -0.799999 1.2
      vertex 0.599999 -0.799999 0
    endloop
  endfacet
  facet normal -1 -0 0
    outer loop
      vertex 0.599999 -0.799999 1.2
      vertex 0.599999 -1.1 0
      vertex 0.599999 -1.1 1.2
    endloop
  endfacet
  facet normal 0 -1 0
    outer loop
      vertex 0.599999 -1.1 0
      vertex 0.9 -1.1 1.2
      vertex 0.599999 -1.1 1.2
    endloop
  endfacet
  facet normal 0 -1 -0
    outer loop
      vertex 0.9 -1.1 1.2
      vertex 0.599999 -1.1 0
      vertex 0.9 -1.1 0
    endloop
  endfacet
  facet normal 0 1 -0
    outer loop
      vertex 0.9 -0.799999 0
      vertex 0.599999 -0.799999 1.2
      vertex 0.9 -0.799999 1.2
    endloop
  endfacet
  facet normal 0 1 0
    outer loop
      vertex 0.599999 -0.799999 1.2
      vertex 0.9 -0.799999 0
      vertex 0.599999 -0.799999 0
    endloop
  endfacet
  facet normal 1 -0 0
    outer loop
      vertex 0.9 -1.1 1.2
      vertex 0.9 -0.799999 0
      vertex 0.9 -0.799999 1.2
    endloop
  endfacet
  facet normal 1 0 0
    outer loop
      vertex 0.9 -0.799999 0
      vertex 0.9 -1.1 1.2
      vertex 0.9 -1.1 0
    endloop
  endfacet
  facet normal -0 0 1
    outer loop
      vertex 0.599999 -0.799999 1.2
      vertex 0.9 -1.1 1.2
      vertex 0.9 -0.799999 1.2
    endloop
  endfacet
  facet normal 0 0 1
    outer loop
      vertex 0.9 -1.1 1.2
      vertex 0.599999 -0.799999 1.2
      vertex 0.599999 -1.1 1.2
    endloop
  endfacet
  facet normal 0 0 -1
    outer loop
      vertex -0.0999994 0.7 0
      vertex 0.2 1 0
      vertex 0.2 0.7 0
    endloop
  endfacet
  facet normal -0 0 -1
    outer loop
      vertex 0.2 1 0
      vertex -0.0999994 0.7 0
      vertex -0.0999994 1 0
    endloop
  endfacet
  facet normal -1 0 0
    outer loop
      vertex -0.0999994 0.7 0
      vertex -0.0999994 1 1.2
      vertex -0.0999994 1 0
    endloop
  endfacet
  facet normal -1 -0 0
    outer loop
      vertex -0.0999994 1 1.2
      vertex -0.0999994 0.7 0
      vertex -0.0999994 0.7 1.2
    endloop
  endfacet
  facet normal 0 -1 0
    outer loop
      vertex -0.0999994 0.7 0
      vertex 0.2 0.7 1.2
      vertex -0.0999994 0.7 1.2
    endloop
  endfacet
  facet normal 0 -1 -0
    outer loop
      vertex 0.2 0.7 1.2
      vertex -0.0999994 0.7 0
      vertex 0.2 0.7 0
    endloop
  endfacet
  facet normal 0 1 -0
    outer loop
      vertex 0.2 1 0
      vertex -0.0999994 1 1.2
      vertex 0.2 1 1.2
    endloop
  endfacet
  facet normal 0 1 0
    outer loop
      vertex -0.0999994 1 1.2
      vertex 0.2 1 0
      vertex -0.0999994 1 0
    endloop
  endfacet
  facet normal -0 0 1
    outer loop
      vertex -0.0999994 1 1.2
      vertex 0.2 0.7 1.2
      vertex 0.2 1 1.2
    endloop
  endfacet
  facet normal 0 0 1
    outer loop
      vertex 0.2 0.7 1.2
      vertex -0.0999994 1 1.2
      vertex -0.0999994 0.7 1.2
    endloop
  endfacet
  facet normal 1 -0 0
    outer loop
      vertex 0.2 0.7 1.2
      vertex 0.2 1 0
      vertex 0.2 1 1.2
    endloop
  endfacet
  facet normal 1 0 0
    outer loop
      vertex 0.2 1 0
      vertex 0.2 0.7 1.2
      vertex 0.2 0.7 0
    endloop
  endfacet
endsolid OpenSCAD_Model
